<svg xmlns="http://www.w3.org/2000/svg" fill="none" viewBox="0 0 24 24" id="Playlist-Remove-Fill--Streamline-Rounded-Fill-Material" height="24" width="24"><desc>Playlist Remove Fill Streamline Icon: https://streamlinehq.com</desc><path fill="#000000" d="m17.1 19.15 -2.3 2.325c-0.15 0.15 -0.325 0.225 -0.525 0.225s-0.375 -0.075 -0.525 -0.225c-0.15 -0.15 -0.225 -0.32915 -0.225 -0.5375 0 -0.20835 0.075 -0.3875 0.225 -0.5375l2.3 -2.3 -2.325 -2.3c-0.15 -0.15 -0.225 -0.325 -0.225 -0.525s0.075 -0.375 0.225 -0.525c0.15 -0.15 0.32915 -0.225 0.5375 -0.225 0.20835 0 0.3875 0.075 0.5375 0.225l2.3 2.3 2.3 -2.325c0.15 -0.15 0.325 -0.225 0.525 -0.225s0.375 0.075 0.525 0.225c0.15 0.15 0.225 0.32915 0.225 0.5375 0 0.20835 -0.075 0.3875 -0.225 0.5375l-2.3 2.3 2.325 2.3c0.15 0.15 0.225 0.325 0.225 0.525s-0.075 0.375 -0.225 0.525c-0.15 0.15 -0.32915 0.225 -0.5375 0.225 -0.20835 0 -0.3875 -0.075 -0.5375 -0.225l-2.3 -2.3ZM3.75 15.75c-0.2125 0 -0.390585 -0.07235 -0.53425 -0.217C3.071915 15.3885 3 15.20935 3 14.9955c0 -0.21365 0.071915 -0.39135 0.21575 -0.533 0.143665 -0.14165 0.32175 -0.2125 0.53425 -0.2125h6c0.2125 0 0.39065 0.07235 0.5345 0.217 0.14365 0.1445 0.2155 0.32365 0.2155 0.5375 0 0.21365 -0.07185 0.39135 -0.2155 0.533 -0.14385 0.14165 -0.322 0.2125 -0.5345 0.2125h-6Zm0 -4.125c-0.2125 0 -0.390585 -0.07235 -0.53425 -0.217C3.071915 11.2635 3 11.08435 3 10.8705c0 -0.21365 0.071915 -0.39135 0.21575 -0.533 0.143665 -0.14165 0.32175 -0.2125 0.53425 -0.2125H14c0.2125 0 0.39065 0.07235 0.5345 0.217 0.14365 0.1445 0.2155 0.32365 0.2155 0.5375 0 0.21365 -0.07185 0.39135 -0.2155 0.533 -0.14385 0.14165 -0.322 0.2125 -0.5345 0.2125H3.75Zm0 -4.125c-0.2125 0 -0.390585 -0.07235 -0.53425 -0.217C3.071915 7.1385 3 6.95935 3 6.7455c0 -0.21365 0.071915 -0.39135 0.21575 -0.533C3.359415 6.07085 3.5375 6 3.75 6H14c0.2125 0 0.39065 0.07235 0.5345 0.217 0.14365 0.1445 0.2155 0.32365 0.2155 0.5375 0 0.21365 -0.07185 0.39135 -0.2155 0.533 -0.14385 0.14165 -0.322 0.2125 -0.5345 0.2125H3.75Z" stroke-width="0.5"></path></svg>