<svg xmlns="http://www.w3.org/2000/svg" fill="none" viewBox="0 0 24 24" id="Expand-Circle-Right-Fill--Streamline-Rounded-Fill-Material" height="24" width="24"><desc>Expand Circle Right Fill Streamline Icon: https://streamlinehq.com</desc><path fill="#000000" d="m13.1 12 -2.725 2.725c-0.15 0.15 -0.225 0.325 -0.225 0.525s0.075 0.375 0.225 0.525c0.15 0.15 0.32915 0.225 0.5375 0.225 0.20835 0 0.3875 -0.075 0.5375 -0.225l3.25 -3.25c0.15 -0.15 0.225 -0.325 0.225 -0.525s-0.075 -0.375 -0.225 -0.525l-3.275 -3.275c-0.15 -0.15 -0.325 -0.22085 -0.525 -0.2125 -0.2 0.00835 -0.375 0.0875 -0.525 0.2375 -0.15 0.15 -0.225 0.325 -0.225 0.525s0.075 0.375 0.225 0.525L13.1 12ZM12 22c-1.38335 0 -2.68335 -0.2625 -3.9 -0.7875 -1.21665 -0.525 -2.275 -1.24165 -3.175 -2.15 -0.9 -0.90835 -1.6125 -1.97085 -2.1375 -3.1875C2.2625 14.65835 2 13.36665 2 12c0 -1.38335 0.2625 -2.68335 0.7875 -3.9 0.525 -1.21665 1.2375 -2.275 2.1375 -3.175 0.9 -0.9 1.95835 -1.6125 3.175 -2.1375C9.31665 2.2625 10.61665 2 12 2s2.67915 0.2625 3.8875 0.7875c1.20835 0.525 2.26665 1.2375 3.175 2.1375 0.90835 0.9 1.625 1.95835 2.15 3.175C21.7375 9.31665 22 10.61665 22 12c0 1.36665 -0.2625 2.65835 -0.7875 3.875 -0.525 1.21665 -1.24165 2.27915 -2.15 3.1875s-1.96665 1.625 -3.175 2.15C14.67915 21.7375 13.38335 22 12 22Z" stroke-width="0.5"></path></svg>