<svg xmlns="http://www.w3.org/2000/svg" fill="none" viewBox="0 0 24 24" id="Keyboard-Arrow-Right-Fill--Streamline-Rounded-Fill-Material" height="24" width="24"><desc>Keyboard Arrow Right Fill Streamline Icon: https://streamlinehq.com</desc><path fill="#000000" d="m13.24995 11.9749 -4.425 -4.425c-0.15 -0.15 -0.2208 -0.325 -0.2125 -0.525 0.00835 -0.2 0.0875 -0.375 0.2375 -0.525 0.15 -0.15 0.3292 -0.225 0.5375 -0.225 0.20835 0 0.3875 0.075 0.5375 0.225l4.95 4.95c0.08335 0.08335 0.1417 0.16665 0.175 0.25 0.03335 0.08335 0.05 0.175 0.05 0.275 0 0.1 -0.01665 0.19165 -0.05 0.275 -0.0333 0.08335 -0.09165 0.16665 -0.175 0.25l-4.975 4.975c-0.15 0.15 -0.325 0.22085 -0.525 0.2125 -0.2 -0.00835 -0.375 -0.0875 -0.525 -0.2375 -0.15 -0.15 -0.225 -0.32915 -0.225 -0.5375 0 -0.20835 0.075 -0.3875 0.225 -0.5375l4.4 -4.4Z" stroke-width="0.5"></path></svg>